<mxfile host="app.diagrams.net" modified="2022-05-27T18:32:43.989Z" agent="5.0 (Windows NT 10.0; Win64; x64) AppleWebKit/537.36 (KHTML, like Gecko) Chrome/101.0.4951.67 Safari/537.36" etag="bzh-Rb08JlmozXODgtMe" version="18.1.3" type="github">
  <diagram id="GSt9h3kdruzZYrg413bn" name="Page-1">
    <mxGraphModel dx="1888" dy="579" grid="1" gridSize="10" guides="1" tooltips="1" connect="1" arrows="1" fold="1" page="1" pageScale="1" pageWidth="850" pageHeight="1100" math="0" shadow="0">
      <root>
        <mxCell id="0" />
        <mxCell id="1" parent="0" />
        <mxCell id="WnzBWXYESNA9fN1IJzue-1" value="&lt;p style=&quot;margin:0px;margin-top:4px;text-align:center;&quot;&gt;&lt;i&gt;&amp;lt;&amp;lt;Interface&amp;gt;&amp;gt;&lt;b&gt;&lt;br&gt;&lt;/b&gt;&lt;/i&gt;&lt;b&gt;IAccessProject&lt;/b&gt;&lt;/p&gt;&lt;hr size=&quot;1&quot;&gt;&lt;p style=&quot;margin:0px;margin-left:4px;&quot;&gt;+ getComponent(index: variant): IAccessComponent&lt;/p&gt;&lt;p style=&quot;margin:0px;margin-left:4px;&quot;&gt;+ getFilePath: String&lt;/p&gt;&lt;p style=&quot;margin:0px;margin-left:4px;&quot;&gt;+ getProjectType: EnumProjectType&lt;/p&gt;" style="verticalAlign=top;align=left;overflow=fill;fontSize=12;fontFamily=Helvetica;html=1;" parent="1" vertex="1">
          <mxGeometry x="400" y="520" width="290" height="140" as="geometry" />
        </mxCell>
        <mxCell id="WnzBWXYESNA9fN1IJzue-2" value="&lt;p style=&quot;margin:0px;margin-top:4px;text-align:center;&quot;&gt;&lt;i&gt;&amp;lt;&amp;lt;Interface&amp;gt;&amp;gt;&lt;/i&gt;&lt;br&gt;&lt;b&gt;IVersionControl&lt;/b&gt;&lt;/p&gt;&lt;hr size=&quot;1&quot;&gt;&lt;p style=&quot;margin:0px;margin-left:4px;&quot;&gt;+ create(Project: IAccessProject)&lt;br&gt;+ stage()&lt;/p&gt;&lt;p style=&quot;margin:0px;margin-left:4px;&quot;&gt;+ commit()&lt;/p&gt;&lt;p style=&quot;margin:0px;margin-left:4px;&quot;&gt;+ build()&lt;/p&gt;" style="verticalAlign=top;align=left;overflow=fill;fontSize=12;fontFamily=Helvetica;html=1;" parent="1" vertex="1">
          <mxGeometry x="100" y="521" width="190" height="140" as="geometry" />
        </mxCell>
        <mxCell id="WnzBWXYESNA9fN1IJzue-3" value="0..n" style="endArrow=open;html=1;endSize=12;startArrow=diamondThin;startSize=14;startFill=0;edgeStyle=orthogonalEdgeStyle;align=left;verticalAlign=bottom;rounded=0;exitX=1.015;exitY=0.563;exitDx=0;exitDy=0;exitPerimeter=0;entryX=0;entryY=0.57;entryDx=0;entryDy=0;entryPerimeter=0;" parent="1" edge="1" target="WnzBWXYESNA9fN1IJzue-1" source="WnzBWXYESNA9fN1IJzue-2">
          <mxGeometry x="-1" y="3" relative="1" as="geometry">
            <mxPoint x="370" y="601" as="sourcePoint" />
            <mxPoint x="440" y="601" as="targetPoint" />
          </mxGeometry>
        </mxCell>
        <mxCell id="WnzBWXYESNA9fN1IJzue-4" value="AccessAdp" style="swimlane;fontStyle=0;childLayout=stackLayout;horizontal=1;startSize=26;fillColor=none;horizontalStack=0;resizeParent=1;resizeParentMax=0;resizeLast=0;collapsible=1;marginBottom=0;" parent="1" vertex="1">
          <mxGeometry x="330" y="766" width="210" height="76" as="geometry">
            <mxRectangle x="480" y="770" width="90" height="26" as="alternateBounds" />
          </mxGeometry>
        </mxCell>
        <mxCell id="WnzBWXYESNA9fN1IJzue-5" value="- Components(): IAdpComponent" style="text;strokeColor=none;fillColor=none;align=left;verticalAlign=top;spacingLeft=4;spacingRight=4;overflow=hidden;rotatable=0;points=[[0,0.5],[1,0.5]];portConstraint=eastwest;" parent="WnzBWXYESNA9fN1IJzue-4" vertex="1">
          <mxGeometry y="26" width="210" height="24" as="geometry" />
        </mxCell>
        <mxCell id="WnzBWXYESNA9fN1IJzue-6" value="+ field: type" style="text;strokeColor=none;fillColor=none;align=left;verticalAlign=top;spacingLeft=4;spacingRight=4;overflow=hidden;rotatable=0;points=[[0,0.5],[1,0.5]];portConstraint=eastwest;" parent="WnzBWXYESNA9fN1IJzue-4" vertex="1">
          <mxGeometry y="50" width="210" height="26" as="geometry" />
        </mxCell>
        <mxCell id="WnzBWXYESNA9fN1IJzue-8" value="AccessDb" style="swimlane;fontStyle=0;childLayout=stackLayout;horizontal=1;startSize=26;fillColor=none;horizontalStack=0;resizeParent=1;resizeParentMax=0;resizeLast=0;collapsible=1;marginBottom=0;" parent="1" vertex="1">
          <mxGeometry x="560" y="766" width="210" height="76" as="geometry">
            <mxRectangle x="480" y="770" width="90" height="26" as="alternateBounds" />
          </mxGeometry>
        </mxCell>
        <mxCell id="WnzBWXYESNA9fN1IJzue-9" value="- Components(): IDbComponent" style="text;strokeColor=none;fillColor=none;align=left;verticalAlign=top;spacingLeft=4;spacingRight=4;overflow=hidden;rotatable=0;points=[[0,0.5],[1,0.5]];portConstraint=eastwest;" parent="WnzBWXYESNA9fN1IJzue-8" vertex="1">
          <mxGeometry y="26" width="210" height="24" as="geometry" />
        </mxCell>
        <mxCell id="WnzBWXYESNA9fN1IJzue-10" value="+ field: type" style="text;strokeColor=none;fillColor=none;align=left;verticalAlign=top;spacingLeft=4;spacingRight=4;overflow=hidden;rotatable=0;points=[[0,0.5],[1,0.5]];portConstraint=eastwest;" parent="WnzBWXYESNA9fN1IJzue-8" vertex="1">
          <mxGeometry y="50" width="210" height="26" as="geometry" />
        </mxCell>
        <mxCell id="RyFp8Hne5gM-qIEVJRmz-1" value="BasicVC" style="swimlane;fontStyle=0;childLayout=stackLayout;horizontal=1;startSize=26;fillColor=none;horizontalStack=0;resizeParent=1;resizeParentMax=0;resizeLast=0;collapsible=1;marginBottom=0;" vertex="1" parent="1">
          <mxGeometry x="215" y="340" width="140" height="104" as="geometry">
            <mxRectangle x="480" y="770" width="90" height="26" as="alternateBounds" />
          </mxGeometry>
        </mxCell>
        <mxCell id="RyFp8Hne5gM-qIEVJRmz-2" value="+ field: type" style="text;strokeColor=none;fillColor=none;align=left;verticalAlign=top;spacingLeft=4;spacingRight=4;overflow=hidden;rotatable=0;points=[[0,0.5],[1,0.5]];portConstraint=eastwest;" vertex="1" parent="RyFp8Hne5gM-qIEVJRmz-1">
          <mxGeometry y="26" width="140" height="26" as="geometry" />
        </mxCell>
        <mxCell id="RyFp8Hne5gM-qIEVJRmz-3" value="+ field: type" style="text;strokeColor=none;fillColor=none;align=left;verticalAlign=top;spacingLeft=4;spacingRight=4;overflow=hidden;rotatable=0;points=[[0,0.5],[1,0.5]];portConstraint=eastwest;" vertex="1" parent="RyFp8Hne5gM-qIEVJRmz-1">
          <mxGeometry y="52" width="140" height="26" as="geometry" />
        </mxCell>
        <mxCell id="RyFp8Hne5gM-qIEVJRmz-4" value="+ field: type" style="text;strokeColor=none;fillColor=none;align=left;verticalAlign=top;spacingLeft=4;spacingRight=4;overflow=hidden;rotatable=0;points=[[0,0.5],[1,0.5]];portConstraint=eastwest;" vertex="1" parent="RyFp8Hne5gM-qIEVJRmz-1">
          <mxGeometry y="78" width="140" height="26" as="geometry" />
        </mxCell>
        <mxCell id="RyFp8Hne5gM-qIEVJRmz-5" value="AdvancedVC" style="swimlane;fontStyle=0;childLayout=stackLayout;horizontal=1;startSize=26;fillColor=none;horizontalStack=0;resizeParent=1;resizeParentMax=0;resizeLast=0;collapsible=1;marginBottom=0;" vertex="1" parent="1">
          <mxGeometry x="55" y="340" width="140" height="104" as="geometry">
            <mxRectangle x="480" y="770" width="90" height="26" as="alternateBounds" />
          </mxGeometry>
        </mxCell>
        <mxCell id="RyFp8Hne5gM-qIEVJRmz-6" value="+ field: type" style="text;strokeColor=none;fillColor=none;align=left;verticalAlign=top;spacingLeft=4;spacingRight=4;overflow=hidden;rotatable=0;points=[[0,0.5],[1,0.5]];portConstraint=eastwest;" vertex="1" parent="RyFp8Hne5gM-qIEVJRmz-5">
          <mxGeometry y="26" width="140" height="26" as="geometry" />
        </mxCell>
        <mxCell id="RyFp8Hne5gM-qIEVJRmz-7" value="+ field: type" style="text;strokeColor=none;fillColor=none;align=left;verticalAlign=top;spacingLeft=4;spacingRight=4;overflow=hidden;rotatable=0;points=[[0,0.5],[1,0.5]];portConstraint=eastwest;" vertex="1" parent="RyFp8Hne5gM-qIEVJRmz-5">
          <mxGeometry y="52" width="140" height="26" as="geometry" />
        </mxCell>
        <mxCell id="RyFp8Hne5gM-qIEVJRmz-8" value="+ field: type" style="text;strokeColor=none;fillColor=none;align=left;verticalAlign=top;spacingLeft=4;spacingRight=4;overflow=hidden;rotatable=0;points=[[0,0.5],[1,0.5]];portConstraint=eastwest;" vertex="1" parent="RyFp8Hne5gM-qIEVJRmz-5">
          <mxGeometry y="78" width="140" height="26" as="geometry" />
        </mxCell>
        <mxCell id="RyFp8Hne5gM-qIEVJRmz-9" value="&lt;p style=&quot;margin:0px;margin-top:4px;text-align:center;&quot;&gt;&lt;i&gt;&amp;lt;&amp;lt;Interface&amp;gt;&amp;gt;&lt;/i&gt;&lt;br&gt;&lt;b&gt;IAdpComponent&lt;/b&gt;&lt;/p&gt;&lt;hr size=&quot;1&quot;&gt;&lt;p style=&quot;margin:0px;margin-left:4px;&quot;&gt;&lt;span style=&quot;background-color: initial;&quot;&gt;+ getName(): String&lt;/span&gt;&lt;br&gt;&lt;/p&gt;&lt;p style=&quot;margin:0px;margin-left:4px;&quot;&gt;+ getID(): Long&lt;/p&gt;&lt;p style=&quot;margin:0px;margin-left:4px;&quot;&gt;&lt;b&gt;&amp;nbsp;...&lt;/b&gt;&lt;/p&gt;" style="verticalAlign=top;align=left;overflow=fill;fontSize=12;fontFamily=Helvetica;html=1;" vertex="1" parent="1">
          <mxGeometry x="330" y="920" width="190" height="90" as="geometry" />
        </mxCell>
        <mxCell id="RyFp8Hne5gM-qIEVJRmz-10" value="" style="endArrow=block;dashed=1;endFill=0;endSize=12;html=1;rounded=0;entryX=0.5;entryY=1;entryDx=0;entryDy=0;exitX=0.5;exitY=0;exitDx=0;exitDy=0;" edge="1" parent="1" source="WnzBWXYESNA9fN1IJzue-8" target="WnzBWXYESNA9fN1IJzue-1">
          <mxGeometry width="160" relative="1" as="geometry">
            <mxPoint x="550" y="711" as="sourcePoint" />
            <mxPoint x="560" y="661" as="targetPoint" />
            <Array as="points">
              <mxPoint x="665" y="730" />
              <mxPoint x="545" y="730" />
            </Array>
          </mxGeometry>
        </mxCell>
        <mxCell id="RyFp8Hne5gM-qIEVJRmz-11" value="" style="endArrow=block;dashed=1;endFill=0;endSize=12;html=1;rounded=0;entryX=0.5;entryY=1;entryDx=0;entryDy=0;exitX=0.443;exitY=0.002;exitDx=0;exitDy=0;exitPerimeter=0;" edge="1" parent="1" source="WnzBWXYESNA9fN1IJzue-4" target="WnzBWXYESNA9fN1IJzue-1">
          <mxGeometry width="160" relative="1" as="geometry">
            <mxPoint x="560" y="801" as="sourcePoint" />
            <mxPoint x="600" y="711" as="targetPoint" />
            <Array as="points">
              <mxPoint x="423" y="730" />
              <mxPoint x="545" y="730" />
            </Array>
          </mxGeometry>
        </mxCell>
        <mxCell id="RyFp8Hne5gM-qIEVJRmz-33" value="" style="endArrow=open;html=1;endSize=12;startArrow=diamondThin;startSize=14;startFill=0;edgeStyle=orthogonalEdgeStyle;rounded=0;exitX=0.507;exitY=1.038;exitDx=0;exitDy=0;exitPerimeter=0;entryX=0.5;entryY=0;entryDx=0;entryDy=0;" edge="1" parent="1" target="RyFp8Hne5gM-qIEVJRmz-9">
          <mxGeometry relative="1" as="geometry">
            <mxPoint x="425" y="842.988" as="sourcePoint" />
            <mxPoint x="538.53" y="920" as="targetPoint" />
            <Array as="points">
              <mxPoint x="425" y="910" />
              <mxPoint x="425" y="910" />
            </Array>
          </mxGeometry>
        </mxCell>
        <mxCell id="RyFp8Hne5gM-qIEVJRmz-34" value="0..n" style="edgeLabel;resizable=0;html=1;align=left;verticalAlign=top;" connectable="0" vertex="1" parent="RyFp8Hne5gM-qIEVJRmz-33">
          <mxGeometry x="-1" relative="1" as="geometry">
            <mxPoint x="-25" y="7" as="offset" />
          </mxGeometry>
        </mxCell>
        <mxCell id="RyFp8Hne5gM-qIEVJRmz-39" value="" style="endArrow=open;html=1;endSize=12;startArrow=diamondThin;startSize=14;startFill=0;edgeStyle=orthogonalEdgeStyle;rounded=0;entryX=0.5;entryY=0;entryDx=0;entryDy=0;exitX=0.545;exitY=1.038;exitDx=0;exitDy=0;exitPerimeter=0;" edge="1" parent="1" source="WnzBWXYESNA9fN1IJzue-10" target="RyFp8Hne5gM-qIEVJRmz-44">
          <mxGeometry relative="1" as="geometry">
            <mxPoint x="680" y="850" as="sourcePoint" />
            <mxPoint x="680" y="900" as="targetPoint" />
          </mxGeometry>
        </mxCell>
        <mxCell id="RyFp8Hne5gM-qIEVJRmz-40" value="0..n" style="edgeLabel;resizable=0;html=1;align=left;verticalAlign=top;" connectable="0" vertex="1" parent="RyFp8Hne5gM-qIEVJRmz-39">
          <mxGeometry x="-1" relative="1" as="geometry">
            <mxPoint x="-25" y="7" as="offset" />
          </mxGeometry>
        </mxCell>
        <mxCell id="RyFp8Hne5gM-qIEVJRmz-44" value="&lt;p style=&quot;margin:0px;margin-top:4px;text-align:center;&quot;&gt;&lt;i&gt;&amp;lt;&amp;lt;Interface&amp;gt;&amp;gt;&lt;/i&gt;&lt;br&gt;&lt;b&gt;IDbComponent&lt;/b&gt;&lt;/p&gt;&lt;hr size=&quot;1&quot;&gt;&lt;p style=&quot;margin: 0px 0px 0px 4px;&quot;&gt;&lt;span style=&quot;background-color: initial;&quot;&gt;+ getName(): String&lt;/span&gt;&lt;br&gt;&lt;/p&gt;&lt;p style=&quot;margin: 0px 0px 0px 4px;&quot;&gt;+ getID(): Long&lt;/p&gt;&lt;p style=&quot;margin: 0px 0px 0px 4px;&quot;&gt;&amp;nbsp;&lt;b&gt;...&lt;/b&gt;&lt;/p&gt;" style="verticalAlign=top;align=left;overflow=fill;fontSize=12;fontFamily=Helvetica;html=1;" vertex="1" parent="1">
          <mxGeometry x="580" y="920" width="190" height="90" as="geometry" />
        </mxCell>
        <mxCell id="RyFp8Hne5gM-qIEVJRmz-46" value="&lt;p style=&quot;margin:0px;margin-top:4px;text-align:center;&quot;&gt;&lt;b&gt;ConcreteComponent&lt;/b&gt;&lt;/p&gt;&lt;hr size=&quot;1&quot;&gt;&lt;p style=&quot;margin:0px;margin-left:4px;&quot;&gt;- wrappedObject: Object&lt;/p&gt;&lt;p style=&quot;margin:0px;margin-left:4px;&quot;&gt;&amp;nbsp;&lt;b&gt;...&lt;/b&gt;&lt;/p&gt;&lt;hr size=&quot;1&quot;&gt;&lt;p style=&quot;margin:0px;margin-left:4px;&quot;&gt;&amp;nbsp;&lt;b&gt;...&lt;/b&gt;&lt;/p&gt;" style="verticalAlign=top;align=left;overflow=fill;fontSize=12;fontFamily=Helvetica;html=1;" vertex="1" parent="1">
          <mxGeometry x="470" y="1100" width="160" height="100" as="geometry" />
        </mxCell>
        <mxCell id="RyFp8Hne5gM-qIEVJRmz-47" value="&lt;p style=&quot;margin:0px;margin-top:4px;text-align:center;&quot;&gt;&lt;i&gt;&amp;lt;&amp;lt;Interface&amp;gt;&amp;gt;&lt;/i&gt;&lt;br&gt;&lt;/p&gt;&lt;p style=&quot;margin:0px;margin-top:4px;text-align:center;&quot;&gt;&lt;b&gt;IAccessComponent&lt;/b&gt;&lt;/p&gt;&lt;hr size=&quot;1&quot;&gt;&lt;p style=&quot;margin:0px;margin-left:4px;&quot;&gt;+ getName(): String&lt;/p&gt;&lt;p style=&quot;margin:0px;margin-left:4px;&quot;&gt;+ getDateModified(): Date&lt;/p&gt;&lt;p style=&quot;margin:0px;margin-left:4px;&quot;&gt;+ merge()&lt;/p&gt;&lt;p style=&quot;margin:0px;margin-left:4px;&quot;&gt;+ isValid(): Boolean&lt;/p&gt;&lt;p style=&quot;margin:0px;margin-left:4px;&quot;&gt;+ export(ExportObj: IVisitor, SanitizeObj: IVisitor)&lt;/p&gt;" style="verticalAlign=top;align=left;overflow=fill;fontSize=12;fontFamily=Helvetica;html=1;" vertex="1" parent="1">
          <mxGeometry x="120" y="1082.5" width="280" height="135" as="geometry" />
        </mxCell>
        <mxCell id="RyFp8Hne5gM-qIEVJRmz-48" value="" style="endArrow=block;dashed=1;endFill=0;endSize=12;html=1;rounded=0;entryX=0.5;entryY=1;entryDx=0;entryDy=0;exitX=0.5;exitY=0;exitDx=0;exitDy=0;" edge="1" parent="1" source="RyFp8Hne5gM-qIEVJRmz-46" target="RyFp8Hne5gM-qIEVJRmz-9">
          <mxGeometry width="160" relative="1" as="geometry">
            <mxPoint x="340" y="1170" as="sourcePoint" />
            <mxPoint x="500" y="1170" as="targetPoint" />
            <Array as="points">
              <mxPoint x="550" y="1040" />
              <mxPoint x="425" y="1040" />
            </Array>
          </mxGeometry>
        </mxCell>
        <mxCell id="RyFp8Hne5gM-qIEVJRmz-50" value="" style="endArrow=block;dashed=1;endFill=0;endSize=12;html=1;rounded=0;entryX=0.5;entryY=1;entryDx=0;entryDy=0;exitX=0.5;exitY=0;exitDx=0;exitDy=0;" edge="1" parent="1" source="RyFp8Hne5gM-qIEVJRmz-46" target="RyFp8Hne5gM-qIEVJRmz-44">
          <mxGeometry width="160" relative="1" as="geometry">
            <mxPoint x="560" y="1080" as="sourcePoint" />
            <mxPoint x="435" y="1010" as="targetPoint" />
            <Array as="points">
              <mxPoint x="550" y="1040" />
              <mxPoint x="675" y="1040" />
            </Array>
          </mxGeometry>
        </mxCell>
        <mxCell id="RyFp8Hne5gM-qIEVJRmz-52" value="" style="endArrow=block;dashed=1;endFill=0;endSize=12;html=1;rounded=0;entryX=1;entryY=0.5;entryDx=0;entryDy=0;exitX=0;exitY=0.5;exitDx=0;exitDy=0;" edge="1" parent="1" source="RyFp8Hne5gM-qIEVJRmz-46" target="RyFp8Hne5gM-qIEVJRmz-47">
          <mxGeometry width="160" relative="1" as="geometry">
            <mxPoint x="340" y="1030" as="sourcePoint" />
            <mxPoint x="500" y="1030" as="targetPoint" />
          </mxGeometry>
        </mxCell>
        <mxCell id="RyFp8Hne5gM-qIEVJRmz-54" value="&lt;p style=&quot;margin:0px;margin-top:4px;text-align:center;&quot;&gt;&lt;i&gt;&amp;lt;&amp;lt;Interface&amp;gt;&amp;gt;&lt;/i&gt;&lt;br&gt;&lt;/p&gt;&lt;p style=&quot;margin:0px;margin-top:4px;text-align:center;&quot;&gt;&lt;b&gt;IVisitor&lt;/b&gt;&lt;/p&gt;&lt;hr size=&quot;1&quot;&gt;&lt;p style=&quot;margin:0px;margin-left:4px;&quot;&gt;+ visitTable(T: Table)&lt;br&gt;+ visitQuery(T: Query)&lt;/p&gt;&lt;p style=&quot;margin:0px;margin-left:4px;&quot;&gt;+ visitForm(T: Form)&lt;/p&gt;&lt;p style=&quot;margin:0px;margin-left:4px;&quot;&gt;+ visitMacro(T: Macro)&lt;/p&gt;&lt;p style=&quot;margin:0px;margin-left:4px;&quot;&gt;&lt;b&gt;...&lt;/b&gt;&lt;/p&gt;" style="verticalAlign=top;align=left;overflow=fill;fontSize=12;fontFamily=Helvetica;html=1;" vertex="1" parent="1">
          <mxGeometry x="-165" y="553" width="150" height="130" as="geometry" />
        </mxCell>
        <mxCell id="RyFp8Hne5gM-qIEVJRmz-55" value="&lt;p style=&quot;margin:0px;margin-top:4px;text-align:center;&quot;&gt;&lt;b&gt;XMLExportVisitor&lt;/b&gt;&lt;/p&gt;&lt;hr size=&quot;1&quot;&gt;&lt;p style=&quot;margin:0px;margin-left:4px;&quot;&gt;&lt;b&gt;...&lt;/b&gt;&lt;/p&gt;&lt;hr size=&quot;1&quot;&gt;&lt;p style=&quot;margin: 0px 0px 0px 4px;&quot;&gt;+ visitTable(T: Table)&lt;/p&gt;&lt;p style=&quot;margin: 0px 0px 0px 4px;&quot;&gt;&lt;b&gt;...&lt;/b&gt;&lt;/p&gt;" style="verticalAlign=top;align=left;overflow=fill;fontSize=12;fontFamily=Helvetica;html=1;" vertex="1" parent="1">
          <mxGeometry x="-30" y="752" width="140" height="90" as="geometry" />
        </mxCell>
        <mxCell id="RyFp8Hne5gM-qIEVJRmz-56" value="&lt;p style=&quot;margin:0px;margin-top:4px;text-align:center;&quot;&gt;&lt;b&gt;JSONExportVisitor&lt;/b&gt;&lt;/p&gt;&lt;hr size=&quot;1&quot;&gt;&lt;p style=&quot;margin:0px;margin-left:4px;&quot;&gt;&lt;b&gt;...&lt;/b&gt;&lt;/p&gt;&lt;hr size=&quot;1&quot;&gt;&lt;p style=&quot;margin:0px;margin-left:4px;&quot;&gt;+ visitTable(T: Table)&lt;/p&gt;&lt;p style=&quot;margin:0px;margin-left:4px;&quot;&gt;&lt;b&gt;...&lt;/b&gt;&lt;/p&gt;" style="verticalAlign=top;align=left;overflow=fill;fontSize=12;fontFamily=Helvetica;html=1;" vertex="1" parent="1">
          <mxGeometry x="-285" y="752" width="140" height="90" as="geometry" />
        </mxCell>
        <mxCell id="RyFp8Hne5gM-qIEVJRmz-58" value="" style="endArrow=block;dashed=1;endFill=0;endSize=12;html=1;rounded=0;entryX=0.5;entryY=1;entryDx=0;entryDy=0;exitX=1;exitY=0.5;exitDx=0;exitDy=0;" edge="1" parent="1" source="RyFp8Hne5gM-qIEVJRmz-56" target="RyFp8Hne5gM-qIEVJRmz-54">
          <mxGeometry width="160" relative="1" as="geometry">
            <mxPoint x="-215" y="713" as="sourcePoint" />
            <mxPoint x="-55" y="713" as="targetPoint" />
            <Array as="points">
              <mxPoint x="-90" y="797" />
              <mxPoint x="-90" y="720" />
            </Array>
          </mxGeometry>
        </mxCell>
        <mxCell id="RyFp8Hne5gM-qIEVJRmz-59" value="" style="endArrow=block;dashed=1;endFill=0;endSize=12;html=1;rounded=0;entryX=0.5;entryY=1;entryDx=0;entryDy=0;exitX=0;exitY=0.5;exitDx=0;exitDy=0;" edge="1" parent="1" source="RyFp8Hne5gM-qIEVJRmz-55" target="RyFp8Hne5gM-qIEVJRmz-54">
          <mxGeometry width="160" relative="1" as="geometry">
            <mxPoint x="-90" y="760" as="sourcePoint" />
            <mxPoint x="-25" y="690" as="targetPoint" />
            <Array as="points">
              <mxPoint x="-90" y="797" />
              <mxPoint x="-90" y="720" />
            </Array>
          </mxGeometry>
        </mxCell>
        <mxCell id="RyFp8Hne5gM-qIEVJRmz-62" value="&lt;p style=&quot;margin:0px;margin-top:4px;text-align:center;&quot;&gt;&lt;b&gt;SanitizeVisitor&lt;/b&gt;&lt;/p&gt;&lt;hr size=&quot;1&quot;&gt;&lt;p style=&quot;margin:0px;margin-left:4px;&quot;&gt;&lt;b&gt;...&lt;/b&gt;&lt;/p&gt;&lt;hr size=&quot;1&quot;&gt;&lt;p style=&quot;margin: 0px 0px 0px 4px;&quot;&gt;+ visitTable(T: Table)&lt;/p&gt;&lt;p style=&quot;margin: 0px 0px 0px 4px;&quot;&gt;&lt;b&gt;...&lt;/b&gt;&lt;/p&gt;" style="verticalAlign=top;align=left;overflow=fill;fontSize=12;fontFamily=Helvetica;html=1;" vertex="1" parent="1">
          <mxGeometry x="-170" y="890" width="160" height="90" as="geometry" />
        </mxCell>
        <mxCell id="RyFp8Hne5gM-qIEVJRmz-63" value="" style="endArrow=block;dashed=1;endFill=0;endSize=12;html=1;rounded=0;entryX=0.5;entryY=1;entryDx=0;entryDy=0;exitX=0.5;exitY=0;exitDx=0;exitDy=0;" edge="1" parent="1" source="RyFp8Hne5gM-qIEVJRmz-62" target="RyFp8Hne5gM-qIEVJRmz-54">
          <mxGeometry width="160" relative="1" as="geometry">
            <mxPoint x="-100" y="930" as="sourcePoint" />
            <mxPoint x="-80" y="693" as="targetPoint" />
          </mxGeometry>
        </mxCell>
        <mxCell id="RyFp8Hne5gM-qIEVJRmz-65" style="edgeStyle=orthogonalEdgeStyle;rounded=0;orthogonalLoop=1;jettySize=auto;html=1;exitX=0.5;exitY=1;exitDx=0;exitDy=0;" edge="1" parent="1" source="RyFp8Hne5gM-qIEVJRmz-47" target="RyFp8Hne5gM-qIEVJRmz-47">
          <mxGeometry relative="1" as="geometry" />
        </mxCell>
      </root>
    </mxGraphModel>
  </diagram>
</mxfile>
